<svg width="20px" height="15px" viewBox="0 0 20 15" version="1.1" xmlns="http://www.w3.org/2000/svg" xmlns:xlink="http://www.w3.org/1999/xlink">
  <g stroke="none" stroke-width="1" fill="none" fill-rule="evenodd">
    <path d="M19.788234,1.835294 L18.188234,0.235294 C18.031372,0.078429 17.850982,0 17.647059,0 C17.443135,0 17.262746,0.078429 17.105884,0.235294 L7.482353,9.858822 L2.894118,5.247057 C2.737254,5.105881 2.556864,5.035294 2.352941,5.035294 C2.149019,5.035294 1.968628,5.105881 1.811765,5.247057 L0.211765,6.847057 C0.070588,7.003922 0,7.184312 0,7.388235 C0,7.592159 0.070588,7.772549 0.211765,7.929413 L6.941178,14.682353 C7.082354,14.839216 7.258823,14.917647 7.470589,14.917647 C7.682355,14.917647 7.858824,14.839216 8,14.682353 L19.788234,2.917647 C19.929413,2.760782 20,2.576471 20,2.364705 C20,2.152939 19.929413,1.976471 19.788234,1.835294 Z" id="checkmark" fill="#FFE164"></path>
  </g>
</svg>
