<?xml version="1.0" encoding="utf-8"?>
<!-- Generator: Adobe Illustrator 22.0.1, SVG Export Plug-In . SVG Version: 6.00 Build 0)  -->
<svg version="1.1" id="Layer_1" xmlns="http://www.w3.org/2000/svg" xmlns:xlink="http://www.w3.org/1999/xlink" x="0px" y="0px"
	 viewBox="0 0 100 13.9" style="enable-background:new 0 0 100 13.9;" xml:space="preserve">
<style type="text/css">
	.st0{fill:#3C485E;}
</style>
<g>
	<path class="st0" d="M5.8,0.3C2.6,0.3,0,2.9,0,6c0,3.2,2.6,5.8,5.8,5.8s5.8-2.6,5.8-5.8C11.6,2.9,9,0.3,5.8,0.3z M5.8,9.9
		C3.6,9.9,1.9,8.2,1.9,6s1.7-3.9,3.9-3.9c2.1,0,3.8,1.6,3.9,3.7C7.3,7.6,5.3,4.3,2.9,5.5c2.7-0.8,3.6,3.2,6.3,2.3
		C8.6,9.1,7.3,9.9,5.8,9.9z"/>
	<g>
		<path class="st0" d="M23.4,3.6L21.3,4c-0.2-1-1-1.6-2-1.6S17.6,3,17.6,3.7c0,0.5,0.2,0.9,1,1l2.2,0.4c1.7,0.4,2.7,1.4,2.7,3
			c0,2-1.6,3.3-4.1,3.3c-2.2,0-4.1-1-4.3-3.1l2.2-0.4c0.3,1.2,1.1,1.7,2.3,1.7c1.2,0,1.8-0.6,1.8-1.3c0-0.6-0.3-0.9-1.2-1.1L18,6.8
			c-1.2-0.3-2.7-0.9-2.7-3c0-1.8,1.5-3.1,3.9-3.1C21.4,0.6,23,1.8,23.4,3.6z"/>
		<path class="st0" d="M27.2,1.2c0,0.7-0.5,1.2-1.2,1.2s-1.2-0.5-1.2-1.2C24.7,0.6,25.2,0,26,0C26.7,0,27.2,0.6,27.2,1.2z M25,11.2
			V3.5h2v7.7H25z"/>
		<path class="st0" d="M34.5,10.9c-0.8,0.4-1.4,0.6-2,0.6c-1.8,0-3-1-3-3.1V5.2h-1.6V3.5h1.6V1.2h2v2.3H34v1.7h-2.5v3
			c0,0.9,0.4,1.3,1.1,1.3c0.4,0,0.9-0.2,1.3-0.4L34.5,10.9z"/>
		<path class="st0" d="M42.3,7.9h-5.9c0.2,1.1,1,1.8,1.9,1.8c0.6,0,1.4-0.1,1.9-1L42,9.1c-0.7,1.6-2.1,2.4-3.7,2.4
			c-2.2,0-3.9-1.6-3.9-4.1c0-2.4,1.8-4.1,4-4.1c2.1,0,3.8,1.6,3.9,3.9V7.9z M36.5,6.5h3.7c-0.3-1-1-1.4-1.8-1.4
			C37.6,5.1,36.7,5.5,36.5,6.5z"/>
		<path class="st0" d="M45.6,1.2c0,0.7-0.5,1.2-1.2,1.2s-1.2-0.5-1.2-1.2c0-0.6,0.5-1.2,1.2-1.2S45.6,0.6,45.6,1.2z M43.4,11.2V3.5
			h2v7.7H43.4z"/>
		<path class="st0" d="M59.3,6.4v4.8h-2V6.8c0-1-0.7-1.7-1.5-1.7c-1.1,0-1.8,0.7-1.8,2.4v3.7h-2V6.8c0-1-0.7-1.7-1.5-1.7
			c-1.1,0-1.8,0.7-1.8,2.4v3.7h-2V3.5h2v0.6C49.2,3.6,50,3.2,51,3.2s2,0.4,2.5,1.3c0.6-0.8,1.6-1.3,2.8-1.3
			C57.9,3.3,59.3,4.5,59.3,6.4z"/>
		<path class="st0" d="M68.9,7.4c0,2.4-1.8,4.1-3.8,4.1c-1,0-1.9-0.3-2.5-0.8v3.2h-2V3.5h2v0.6c0.6-0.5,1.5-0.8,2.5-0.8
			C67,3.3,68.9,4.9,68.9,7.4z M66.9,7.4c0-1.4-0.9-2.3-2.2-2.3c-1.1,0-2.2,0.9-2.2,2.3s1.1,2.3,2.2,2.3C66,9.7,66.9,8.8,66.9,7.4z"
			/>
		<path class="st0" d="M75.2,3.5l-0.1,2h-0.4c-1.9,0-2.7,1.2-2.7,3.3v2.5h-2V3.5h2v1.4c0.6-0.9,1.5-1.5,2.8-1.5
			C74.8,3.4,75,3.4,75.2,3.5z"/>
		<path class="st0" d="M83.7,7.4c0,2.4-1.9,4-4.1,4c-2.3,0-4.2-1.6-4.2-4s1.9-4,4.2-4C81.8,3.3,83.7,4.9,83.7,7.4z M81.7,7.4
			c0-1.4-1.1-2.3-2.2-2.3S77.3,6,77.3,7.4s1.1,2.3,2.2,2.3C80.6,9.7,81.7,8.8,81.7,7.4z"/>
		<path class="st0" d="M88.9,11.2h-2.2l-3.2-7.7h2.2l2.1,5.2l2.1-5.2h2.2L88.9,11.2z"/>
		<path class="st0" d="M100,7.9h-5.9c0.2,1.1,1,1.8,1.9,1.8c0.6,0,1.4-0.1,1.9-1l1.8,0.4c-0.7,1.6-2.1,2.4-3.7,2.4
			c-2.2,0-3.9-1.6-3.9-4.1c0-2.4,1.8-4.1,4-4.1c2.1,0,3.8,1.6,3.9,3.9C100,7.2,100,7.9,100,7.9z M94.2,6.5h3.7c-0.3-1-1-1.4-1.8-1.4
			C95.3,5.1,94.5,5.5,94.2,6.5z"/>
	</g>
</g>
</svg>
